PathFileType	4	(X/Y/Z)	Kaydara	
DataRate	CameraRate	NumFrames	NumMarkers	Units	OrigDataRate	OrigDataStartFrame	OrigNumFrames	
120.00	120.00	4	72	mm	120.00	202	268	
Frame#	Time	Hips			RightUpLeg			RightLeg			RightFoot			RightFoot_End			LeftUpLeg			LeftLeg			LeftFoot			LeftFoot_End			Spine			Spine1			Spine2			Spine3			Neck			Head			Head_End			RightShoulder			RightArm			RightForeArm			RightHand			RightHandThumb1			RightHandThumb2			RightHandThumb3			RightHandThumb3_End			RightInHandIndex			RightHandIndex1			RightHandIndex2			RightHandIndex3			RightHandIndex3_End			RightInHandMiddle			RightHandMiddle1			RightHandMiddle2			RightHandMiddle3			RightHandMiddle3_End			RightInHandRing			RightHandRing1			RightHandRing2			RightHandRing3			RightHandRing3_End			RightInHandPinky			RightHandPinky1			RightHandPinky2			RightHandPinky3			RightHandPinky3_End			LeftShoulder			LeftArm			LeftForeArm			LeftHand			LeftHandThumb1			LeftHandThumb2			LeftHandThumb3			LeftHandThumb3_End			LeftInHandIndex			LeftHandIndex1			LeftHandIndex2			LeftHandIndex3			LeftHandIndex3_End			LeftInHandMiddle			LeftHandMiddle1			LeftHandMiddle2			LeftHandMiddle3			LeftHandMiddle3_End			LeftInHandRing			LeftHandRing1			LeftHandRing2			LeftHandRing3			LeftHandRing3_End			LeftInHandPinky			LeftHandPinky1			LeftHandPinky2			LeftHandPinky3			LeftHandPinky3_End			
		X1	Y1	Z1	X2	Y2	Z2	X3	Y3	Z3	X4	Y4	Z4	X5	Y5	Z5	X6	Y6	Z6	X7	Y7	Z7	X8	Y8	Z8	X9	Y9	Z9	X10	Y10	Z10	X11	Y11	Z11	X12	Y12	Z12	X13	Y13	Z13	X14	Y14	Z14	X15	Y15	Z15	X16	Y16	Z16	X17	Y17	Z17	X18	Y18	Z18	X19	Y19	Z19	X20	Y20	Z20	X21	Y21	Z21	X22	Y22	Z22	X23	Y23	Z23	X24	Y24	Z24	X25	Y25	Z25	X26	Y26	Z26	X27	Y27	Z27	X28	Y28	Z28	X29	Y29	Z29	X30	Y30	Z30	X31	Y31	Z31	X32	Y32	Z32	X33	Y33	Z33	X34	Y34	Z34	X35	Y35	Z35	X36	Y36	Z36	X37	Y37	Z37	X38	Y38	Z38	X39	Y39	Z39	X40	Y40	Z40	X41	Y41	Z41	X42	Y42	Z42	X43	Y43	Z43	X44	Y44	Z44	X45	Y45	Z45	X46	Y46	Z46	X47	Y47	Z47	X48	Y48	Z48	X49	Y49	Z49	X50	Y50	Z50	X51	Y51	Z51	X52	Y52	Z52	X53	Y53	Z53	X54	Y54	Z54	X55	Y55	Z55	X56	Y56	Z56	X57	Y57	Z57	X58	Y58	Z58	X59	Y59	Z59	X60	Y60	Z60	X61	Y61	Z61	X62	Y62	Z62	X63	Y63	Z63	X64	Y64	Z64	X65	Y65	Z65	X66	Y66	Z66	X67	Y67	Z67	X68	Y68	Z68	X69	Y69	Z69	X70	Y70	Z70	X71	Y71	Z71	X72	Y72	Z72	

202	1.675	1446.805	859.65103	-201.189	1477.8283453567258	838.1731902536566	-240.6491684692885	1403.1092790444684	434.2836437389468	-268.09875996807756	1492.7126817943586	75.32745450614601	-411.2600584417795	1485.9215053643582	-27.390797637910147	-278.84701638531783	1422.3433841326664	852.2430954028298	-148.40314764637452	1296.8505978175635	463.678312520188	-58.748940415120416	1222.064236256961	83.95669137825111	94.55194790882815	1285.1128096839707	28.22351695491747	263.0994338506291	1416.1847397863098	987.1517928023359	-257.04014811666434	1371.1067719421346	1062.6610105796717	-297.38617850776814	1319.123056524636	1138.116088289286	-338.9706037273169	1261.946390842922	1204.5361521114855	-378.57050700892785	1200.0648508833917	1275.5526868822253	-416.6674605670452	1156.324720179196	1349.785565877548	-380.61798037500347	1135.9556110601386	1444.274910214585	-257.12664081613394	1225.7755166238444	1253.2206780590093	-415.0574458909656	1252.631228371989	1247.5623594508484	-448.17262094879936	1341.7479390577782	1105.603064435147	-395.572669392323	1388.8204929537064	1112.751590971635	-448.75376542299495	1396.6474273866995	1139.3097856788022	-448.4591936581989	1401.2401357871377	1156.1853365484303	-458.11785289841396	1404.8100975839743	1164.7445029523076	-465.20470846788936	1408.1041279827205	1169.1484259544418	-471.42116324575636	1399.305671082811	1130.6315559897378	-448.8284698542171	1414.0749075560052	1144.6810020737296	-454.1617901997784	1421.1049856542973	1152.6901369974487	-462.6604214931441	1422.244082594234	1158.2097628450215	-469.86414148028337	1421.0071504996422	1163.1428485865488	-477.12183220497013	1399.6479512126725	1121.3742069573882	-449.8510438710169	1414.2394811777262	1130.0708138870266	-455.6047583520811	1421.9038962470352	1137.5410954276228	-465.0020492092378	1423.2748974936999	1143.5912495226905	-473.7523940725873	1421.9198829488926	1148.6928409452955	-481.72247484047995	1399.551227369394	1114.4752498240346	-450.3921990941905	1412.6563926625688	1116.2799702486423	-455.8862319553568	1419.306341238625	1121.4800855569067	-464.1947187861781	1420.6126485061645	1126.619703934588	-472.6976640515426	1419.3309400894616	1131.0865548647819	-480.22118690245685	1398.7097888331218	1106.117778100448	-451.21740228353303	1410.344460116402	1102.6248374995137	-456.6153159030092	1415.5646782801052	1104.7356629286146	-463.42855559060797	1416.4667975766042	1107.4913217182768	-469.7080890086671	1415.302233484572	1110.8766224000592	-476.41728209664274	1215.3139553975363	1252.748981830638	-392.60085369761754	1202.3907965548265	1225.542496887436	-355.3262162498908	1262.102826996946	1124.7218684670156	-414.4799721096928	1336.5723958145934	1110.605087237767	-384.5691282274296	1341.8467184006195	1135.8630959558398	-386.120015794978	1353.6241001653007	1140.3113712916747	-395.7501154408218	1361.57668682974	1140.6687022582412	-403.9221203072444	1367.9932520164161	1138.6222149861937	-411.9885556959947	1340.7776048918686	1129.967136554246	-391.24264010132794	1349.1379370905565	1142.4182835152644	-408.0623089437327	1358.4801912650046	1142.4808980144937	-421.2278243192043	1365.776991978356	1139.0642410779105	-427.7155927371303	1372.8207442655805	1133.9053923995548	-431.94066843488014	1339.9763916195384	1121.6713239324865	-394.71285200582196	1347.6964364600458	1129.331033762482	-412.99487375779535	1357.762256410143	1128.25360044734	-427.7662276323836	1366.5039552426906	1123.5817215859877	-435.78788224356936	1374.181132634623	1117.6697201428253	-440.50540718688615	1339.1612438926684	1115.56449275307	-396.7334427059536	1345.267743353301	1117.3383610905944	-414.86622555133533	1353.8981040799447	1115.215321853925	-428.12631663203365	1362.2542077630972	1110.0801830960527	-436.0684590167086	1369.4366908478673	1104.2234483065072	-440.60107526808576	1338.261169684162	1107.5988518059128	-398.59000019472165	1343.1898571034853	1104.5603533764797	-416.36487657959384	1349.851196087252	1101.0049632210985	-427.5051439381518	1355.825467373037	1096.3618733974674	-433.5507262464202	1362.1185122472366	1090.6572484787598	-437.71122843029616
203	1.683	1446.805	859.65103	-201.189	1475.280167382124	837.4129575157767	-242.00243810820342	1401.2714366667533	433.4172851523142	-270.54307706516903	1491.2078280744886	75.13008040667609	-414.51828469195453	1484.4600022376192	-28.115842173281646	-282.673791576737	1424.7724935820097	852.849940255272	-147.29998896099463	1299.00359360818	464.0816247852746	-58.83092865950511	1224.548293909444	83.97280473846045	93.12111839850388	1287.562404949782	27.6875928168387	261.47018254221285	1416.8583409373202	987.870149740613	-255.86212130782252	1371.486458503686	1063.5011008120073	-295.69950133155726	1319.2302119724511	1139.0425105467236	-336.83067181682213	1261.9747462706518	1205.5662700182777	-376.1771099280596	1200.1842587061428	1276.9142713279589	-413.9461185554584	1156.596868560208	1351.1438887582508	-377.59300411346277	1136.61003121865	1445.1532939981896	-253.74255644136963	1225.8957255906914	1254.709517504697	-412.3696023129769	1253.1488399021887	1250.4002104165552	-445.28553086514836	1344.2869055871852	1108.6864382926867	-394.647328508297	1396.8037467887964	1124.3011267554991	-448.5745547476188	1404.3789852889588	1152.2328831761904	-447.3547077600247	1409.263174670753	1170.2671998602143	-456.5421981691128	1413.1601696609687	1179.6066478535754	-463.42316376895474	1416.8329356179868	1184.6382122123657	-469.5725663603918	1407.4430566428791	1143.6225026465563	-448.0577495144434	1422.97603819109	1159.6132927306342	-453.02518483647356	1430.621615114839	1168.7729641282242	-461.37360187488184	1432.0291895172795	1174.7689629193853	-468.4700609940962	1430.9374563404035	1179.9351797863044	-475.6296176272802	1408.1000989704135	1134.2154432460823	-449.4305186576945	1423.6068061492117	1144.7246547295874	-455.0167349891723	1431.982017106042	1153.4241139494136	-464.29764397124995	1433.6957152152925	1160.0363734141572	-472.94138473673945	1432.5087036637278	1165.3869127078349	-480.8151736469691	1408.2063930976292	1127.1634210419472	-450.2280937052374	1422.3082706058083	1130.4663126271244	-455.7936120887787	1429.6163503476594	1136.708006969912	-464.0494987318485	1431.273693619062	1142.374003233156	-472.4755615738667	1430.1596668219968	1147.06744636898	-479.9208344782197	1407.57593733657	1118.5555922026917	-451.3620555804171	1420.255491078468	1116.2905808268908	-457.0146431860086	1426.0585519055462	1119.1824917527656	-463.8616586999165	1427.2437462680045	1122.2964652062542	-470.1218208801607	1426.2432556135163	1125.8677261937084	-476.7828175165031	1215.3585795959086	1253.7508607858856	-390.03886742568244	1201.612144388202	1224.4413744793655	-354.3040640203314	1264.652984673318	1126.9058260608786	-415.6833068740499	1343.4473345275617	1120.3894082760785	-385.38099448888767	1349.7574043235693	1146.9143604499066	-386.54822263521237	1361.8154646665114	1152.21641250308	-396.16853816453624	1369.8209284207305	1153.1722079950325	-404.4519239395681	1376.1595738743963	1151.6279571860168	-412.71233928459804	1348.3172525196624	1141.2154856783427	-392.0564903291044	1356.9691863715645	1155.628748004626	-409.33008819157266	1366.2734014279445	1156.6994566749188	-422.8268793444524	1373.5078341814894	1153.5579710734903	-429.39752998708656	1380.4738389878544	1148.3897228564274	-433.60819732713395	1347.1066002354198	1132.8449562760811	-395.83312380657713	1354.8896665734514	1142.3781667869341	-414.72363203027794	1364.8587112846212	1142.3840997691766	-429.89545101613555	1373.4986336639652	1138.0361943688058	-438.03581142077974	1381.0778559807359	1132.1100271707753	-442.74664889978123	1345.996311956839	1126.6393324675237	-398.0593265945547	1351.907692010091	1130.0182786173907	-416.91799608962776	1360.3970926829081	1128.8194804068178	-430.56599989218853	1368.6249609778558	1123.9862070031145	-438.64328998867444	1375.7010951688335	1118.1111045532414	-443.1793956441079	1344.7352368431534	1118.4711105439458	-400.1341450615691	1349.2677667667851	1116.79410529755	-418.7118771011598	1355.7287642717108	1113.9405202389084	-430.22024081385655	1361.5671866654989	1109.4990914783036	-436.39220322238447	1367.7416666859997	1103.7675456174031	-440.57180642755634
204	1.692	1446.805	859.65103	-201.189	1477.5487059094735	838.6597468622736	-240.20000204723488	1403.4212533930136	434.7284669549572	-268.55002411581796	1493.5430123256622	77.09560612833918	-413.8680341541479	1487.1524466731769	-26.148917946337306	-282.14455723026293	1422.6215358809966	851.7517037823619	-148.87843730769166	1296.7787944539773	463.1966744461465	-59.58089154980016	1221.9985011461526	83.07981749910132	92.30967533006836	1285.1080099630792	26.60616032325067	260.56897050613475	1416.2090975296323	987.1435727583415	-256.9532019735213	1371.2632969782167	1062.9472803460585	-296.97406863362085	1319.3785000884573	1138.7027760660226	-338.22391706109585	1262.170997423627	1205.2980504525729	-377.52532600088284	1200.3910567120724	1276.6659931813228	-415.24780996012976	1156.8151517884585	1350.941401059828	-378.9443500086115	1136.9707781117086	1445.083670282855	-255.16827096986847	1225.9570430865415	1254.3360709491005	-413.65806281307067	1252.8906686968244	1249.9453581898742	-446.2232650415237	1343.2463889932933	1108.6043140693698	-394.6345924790656	1395.8354129869733	1125.27700706746	-447.83626364948856	1403.303745360649	1153.4853847922184	-446.3897617995632	1408.2511757516272	1171.6909494543693	-455.3709158342415	1412.2179102363298	1181.1391041738286	-462.12458362754097	1415.9707824823795	1186.2522763349177	-468.18185612498473	1406.439948974773	1144.8746209332003	-447.13039526197133	1422.0591261886693	1161.1961921731718	-451.87109721246804	1429.8189874808709	1170.5216094313662	-460.06355000256326	1431.2997909089377	1176.5682024507444	-467.06829015048623	1430.2701595772419	1181.740916365232	-474.15548361842144	1407.166462119872	1135.4242902718433	-448.5556888708595	1422.7947943675745	1146.232755204762	-453.94916607886154	1431.3036681299573	1155.1062054483493	-463.0675587790389	1433.110014096507	1161.7762014601278	-471.60432832201525	1431.9930404101872	1167.1322459002845	-479.40071885590754	1407.319254996364	1128.3339026870456	-449.3961961550497	1421.5694423045143	1131.8735865497172	-454.82639053833196	1429.0029843722787	1138.259434784569	-462.9487706963475	1430.7544684087213	1143.9771624058164	-471.275973314129	1429.708540079615	1148.6738940461921	-478.6505196439845	1406.7427966004836	1119.6671492859252	-450.58587269259306	1419.5904539004848	1117.585277239073	-456.1487605585995	1425.5073296095861	1120.5799025495521	-462.9021527504874	1426.767632971766	1123.7254371959266	-469.0966373498343	1425.8311985744817	1127.2960842551163	-475.6986949693384	1215.7110566638323	1253.611476454643	-391.4064951278807	1202.0436551801108	1224.2511377359626	-356.04997528022085	1265.4463846334559	1127.1853763934241	-416.67392475486	1344.660340904226	1122.1999769145445	-386.013899120459	1350.9877637488166	1148.6534429221947	-387.0344136942036	1362.9838941928758	1153.8966509754923	-396.4945408334108	1370.9514499394559	1154.8249329782009	-404.6579098238474	1377.2629742184956	1153.2692733070046	-412.81100841200293	1349.5782486013982	1142.9985240430944	-392.4945145466251	1358.2782157989604	1157.4099967577727	-409.45765715133246	1367.5607253471048	1158.4675111381762	-422.76160055371264	1374.74341154976	1155.3004385849626	-429.2560685196222	1381.640796348224	1150.099286826902	-433.43318618436234	1348.3775195896562	1134.664133985663	-396.2600151638405	1356.2128048781285	1144.2151359102015	-414.84169157620164	1366.1592499330532	1144.2114360846153	-429.80263712541137	1374.7372694921335	1139.8349416241022	-437.85088905851666	1382.241658512768	1133.873871040525	-442.52491525327133	1347.2736208619	1128.4842903100987	-398.48591645399057	1353.2391037776808	1131.9021758241654	-417.0665209349783	1361.7098298490127	1130.6998163262554	-430.5307740815174	1369.878527678898	1125.8415216154935	-438.519247021761	1376.8845602669285	1119.9348342686278	-443.0207615457083	1346.0137621105923	1120.3441869519036	-400.5721652446368	1350.5987139666959	1118.7209239416582	-418.90061976018046	1357.0460942198845	1115.871864551462	-430.26313993702547	1362.8420096958407	1111.415756187521	-436.370941723443	1368.9547674396047	1105.6582693000262	-440.52025257554175
205	1.7	1446.805	859.65103	-201.189	1478.4633718921698	839.2527012337134	-239.3472452114824	1404.9854213900355	435.1492094683584	-267.3386679903987	1495.6681442115569	78.25881585818642	-414.22965865892974	1489.9185342985272	-25.160437660327418	-282.58481030102394	1421.7612044958169	851.2272405972893	-149.6299515390372	1296.0504819454607	462.7070756502222	-59.98739986078934	1220.8677624661877	82.49341714110022	91.41301944522925	1284.1138581587588	25.64994852379127	259.4944103802465	1415.9172321050346	986.8075135496327	-257.44857165598086	1371.1990509137515	1062.732082155968	-297.52017501196264	1319.521920261644	1138.6451203034535	-338.7782204306208	1262.3616127118496	1205.348793782556	-377.98907544765666	1200.5118700843955	1276.6630012876162	-415.64723178685665	1156.795807215797	1350.8374357801083	-379.42073260229347	1136.8756104047839	1445.0197852898389	-255.7169668702614	1225.9009164100605	1254.1634647012963	-414.0867707302262	1252.202467546839	1249.329344585056	-446.4137395962884	1341.0212766477139	1108.3858064865356	-393.1263138432468	1390.9228277441384	1122.4926151866214	-445.53021583899675	1398.4661239966467	1150.4087702806685	-444.2564860311707	1403.411658067389	1168.3335754783802	-453.255082662896	1407.332184014451	1177.5834567811175	-459.9936221797878	1411.0081490968587	1182.5289487835714	-466.01494748434817	1401.4414224750594	1141.7537664509487	-444.92445727581946	1416.792537483915	1157.583403693435	-449.67678047476517	1424.4025774021497	1166.6065840765	-457.82775414293565	1425.8677645112261	1172.527704144601	-464.80081728140885	1424.877493868809	1177.6386904413373	-471.8578055600659	1402.0569271096922	1132.3149535879484	-446.27279702109183	1417.3637458912594	1142.649803045017	-451.6360069869653	1425.695401601306	1151.1966106959303	-460.6988782546593	1427.476309064234	1157.7167653357524	-469.1925087417478	1426.3991998254369	1163.0060069592996	-476.9534545335871	1402.1374149325623	1125.2447164091816	-447.05896564033304	1416.0345914625177	1128.3759275810228	-452.415820053863	1423.3001460122287	1134.4810557786452	-460.47937062063266	1425.0199076378456	1140.0563611152259	-468.75941651001847	1424.0080620820788	1144.6912854548002	-476.09802617127843	1401.4910508727612	1116.6195779426678	-448.18310604994224	1413.9693287743512	1114.186784925145	-453.63941619443153	1419.732139085815	1116.964626240816	-460.32973934461154	1420.9598575676664	1120.0101545701773	-466.4821092505258	1420.0481594094765	1123.5282718479743	-473.04787452772814	1216.0676532553293	1253.8142002843776	-391.8510410953594	1203.0960553605719	1225.2944152506766	-356.191350039739	1265.2164595852055	1127.350838709809	-414.99826481217315	1343.582900616257	1120.4673166545401	-385.3200615372521	1349.5311891420101	1146.5072407475307	-386.37448261318656	1361.3856767891202	1151.4849987885095	-395.6996579235512	1369.3161339605163	1152.2257342984033	-403.72397239643925	1375.6493662184114	1150.511405056079	-411.7226155967836	1348.2983224521977	1140.7810224039333	-391.67789428878075	1356.9567898391474	1154.5441982686855	-408.27870264867806	1366.2593978360642	1155.2771641938482	-421.3211754556223	1373.4345559924855	1152.030325859684	-427.7128073561023	1380.3121983259089	1146.8454425738566	-431.84508319764524	1347.2687387800706	1132.4678873513005	-395.333007106712	1355.156108074456	1141.3980027359808	-413.5015498433105	1365.1472666509612	1141.0452311706892	-428.1637849299561	1373.7271256809568	1136.5749355498554	-436.08153319654343	1381.215225138228	1130.6328556185672	-440.70335619909315	1346.2867133424188	1126.3181704892945	-397.48988328507016	1352.404364674566	1129.201587049843	-415.639532868229	1360.9372490827031	1127.701139288829	-428.8303869574091	1369.1200497566952	1122.755647370933	-436.6860489609562	1376.1166078634137	1116.8683643267868	-441.13519806702175	1345.169320075783	1118.2428404218342	-399.50922860184085	1349.9813243315803	1116.1642989158288	-417.400134410559	1356.5140181896807	1113.088512980575	-428.52524488351764	1362.337413873369	1108.5745915437183	-434.52724335607206	1368.4516680032127	1102.8376285205259	-438.62503591603473
